<svg width="123" height="114" viewBox="0 0 123 114" fill="none" xmlns="http://www.w3.org/2000/svg">
<g clip-path="url(#clip0_5_202)">
<path fill-rule="evenodd" clip-rule="evenodd" d="M72.17 60.87L110.17 54.76C113.54 54.22 116.75 56.54 117.29 59.91L122.8 94.15C123.34 97.52 121.02 100.73 117.65 101.27L79.65 107.38C76.28 107.92 73.07 105.6 72.53 102.23L67.02 67.99C66.48 64.62 68.8 61.41 72.17 60.87ZM91.64 76.94L84.29 76.86C84.51 74.49 85.35 72.56 86.84 71.06C88.32 69.57 90.61 68.56 93.69 68.05C97.24 67.46 99.9 67.69 101.71 68.75C103.51 69.81 104.58 71.34 104.91 73.34C105.11 74.51 104.96 75.63 104.48 76.69C104 77.75 103.18 78.74 102 79.67C103.09 79.75 103.95 79.92 104.56 80.18C105.56 80.59 106.38 81.2 107.03 82.03C107.68 82.86 108.12 83.9 108.33 85.16C108.59 86.74 108.44 88.33 107.85 89.93C107.26 91.52 106.26 92.84 104.83 93.88C103.4 94.92 101.42 95.66 98.88 96.08C96.41 96.49 94.41 96.53 92.89 96.18C91.36 95.84 90.05 95.18 88.94 94.22C87.84 93.25 86.89 91.96 86.11 90.34L93.5 88.07C94.05 89.55 94.69 90.53 95.41 91.02C96.13 91.51 96.97 91.67 97.94 91.51C98.95 91.34 99.73 90.83 100.28 89.97C100.83 89.12 101 88.07 100.79 86.83C100.58 85.57 100.09 84.65 99.33 84.06C98.57 83.48 97.63 83.28 96.52 83.46C95.93 83.56 95.14 83.84 94.16 84.31L93.65 78.84C94.07 78.83 94.4 78.81 94.63 78.77C95.61 78.61 96.37 78.15 96.92 77.42C97.47 76.68 97.67 75.89 97.53 75.03C97.39 74.2 97.03 73.58 96.47 73.18C95.89 72.77 95.18 72.63 94.32 72.78C93.43 72.93 92.76 73.31 92.29 73.94C91.83 74.57 91.61 75.57 91.64 76.94ZM62.77 11.41L67.39 39.13L59.74 40.41L56.72 22.28C55.64 23.43 54.57 24.38 53.5 25.15C52.44 25.92 51.07 26.72 49.42 27.54L48.39 21.37C50.83 20.1 52.66 18.77 53.89 17.36C55.12 15.95 56 14.32 56.52 12.46L62.77 11.41ZM17.77 56.97L54.69 67.85C57.97 68.82 59.86 72.29 58.89 75.57L49.09 108.83C48.12 112.11 44.65 114 41.37 113.03L4.46004 102.16C1.18004 101.19 -0.709962 97.72 0.260038 94.44L10.06 61.18C11.02 57.9 14.49 56.01 17.77 56.97ZM44.48 86L39.42 85.28C39.14 85.6 38.83 85.91 38.49 86.2C37.21 87.3 35.17 88.33 32.37 89.28C30.71 89.82 29.6 90.22 29.02 90.46C28.44 90.71 27.75 91.04 26.94 91.47L37.62 94.63L35.97 100.19L15.46 94.13C16.29 92.18 17.57 90.48 19.29 89.06C21.01 87.63 23.86 86.18 27.86 84.72C28.62 84.44 29.29 84.18 29.89 83.93C31.23 83.37 32.17 82.89 32.72 82.47C33.51 81.86 34.01 81.21 34.21 80.52C34.43 79.77 34.35 79.05 33.95 78.35C33.55 77.65 32.93 77.18 32.09 76.93C31.22 76.67 30.42 76.74 29.71 77.12C28.99 77.51 28.33 78.37 27.73 79.71L21.06 77.13C21.9 75.28 22.84 73.93 23.87 73.06C24.91 72.19 26.16 71.66 27.63 71.47C29.11 71.28 30.99 71.52 33.3 72.21C35.7 72.92 37.49 73.75 38.67 74.69C39.84 75.63 40.65 76.78 41.07 78.14C41.5 79.51 41.51 80.89 41.09 82.3C40.76 83.4 40.21 84.39 39.43 85.29L44.48 86ZM36.49 6.19002L74.49 0.0800172C77.86 -0.459983 81.07 1.86002 81.61 5.23002L87.12 39.47C87.66 42.84 85.34 46.05 81.97 46.59L43.97 52.7C40.6 53.24 37.39 50.92 36.85 47.55L31.34 13.31C30.8 9.94002 33.12 6.73002 36.49 6.19002Z" fill="#424242"/>
</g>
<defs>
<clipPath id="clip0_5_202">
<rect width="122.88" height="113.29" fill="white"/>
</clipPath>
</defs>
</svg>
