<svg width="120" height="120" viewBox="0 0 120 120" fill="none" xmlns="http://www.w3.org/2000/svg">
<g clip-path="url(#clip0_5_190)">
<path fill-rule="evenodd" clip-rule="evenodd" d="M44.4727 2.06048C76.4747 -6.51374 109.365 12.4804 117.94 44.4726C126.514 76.4745 107.52 109.365 75.5274 117.939C43.5255 126.514 10.6349 107.519 2.06064 75.5273C-6.51358 43.5253 12.4708 10.6347 44.4727 2.06048Z" fill="#FBD433"/>
<path fill-rule="evenodd" clip-rule="evenodd" d="M44.707 31.5137C48.9062 31.5137 52.3047 36.4453 52.3047 42.5195C52.3047 48.5938 48.9062 53.5254 44.707 53.5254C40.5078 53.5254 37.1094 48.5938 37.1094 42.5195C37.1094 36.4453 40.5078 31.5137 44.707 31.5137ZM27.4609 92.4805C43.7598 71.3574 77.2754 71.8164 91.6992 92.5195L94.0527 90.1855C77.9004 62.7734 43.7012 61.7969 25.0098 90.0391L27.4609 92.4805ZM75.293 31.5137C79.4922 31.5137 82.8906 36.4453 82.8906 42.5195C82.8906 48.5938 79.4922 53.5254 75.293 53.5254C71.0938 53.5254 67.6953 48.5938 67.6953 42.5195C67.6855 36.4453 71.0938 31.5137 75.293 31.5137Z" fill="#141518"/>
</g>
<defs>
<clipPath id="clip0_5_190">
<rect width="120" height="120" fill="white"/>
</clipPath>
</defs>
</svg>
