<svg width="123" height="86" viewBox="0 0 123 86" fill="none" xmlns="http://www.w3.org/2000/svg">
<g clip-path="url(#clip0_38_4)">
<path fill-rule="evenodd" clip-rule="evenodd" d="M114.69 36.31V84.31C114.687 84.6911 114.535 85.0559 114.265 85.3253C113.996 85.5948 113.631 85.7474 113.25 85.75H100.84C100.459 85.7474 100.094 85.5948 99.8246 85.3253C99.5551 85.0559 99.4026 84.6911 99.4 84.31V48.61C101.94 46.13 105.05 43.13 108.23 40.07L113.23 35.25C113.688 35.6367 114.172 35.9909 114.68 36.31H114.69ZM30.13 23.31C27.3971 23.1104 24.6517 23.4502 22.05 24.31H21.99C17.0844 25.9685 12.9706 29.3914 10.4479 33.9137C7.92528 38.436 7.17395 43.7347 8.33996 48.78C8.72254 50.4934 9.32415 52.1503 10.13 53.71L0.309958 63.11C0.123707 63.2974 0.019165 63.5508 0.019165 63.815C0.019165 64.0792 0.123707 64.3326 0.309958 64.52L5.86996 70.34C6.05732 70.5262 6.31077 70.6308 6.57496 70.6308C6.83914 70.6308 7.0926 70.5262 7.27996 70.34L16.73 61.22C18.1627 62.2357 19.7184 63.0656 21.36 63.69C23.2874 64.4084 25.308 64.8462 27.36 64.99C30.7781 65.2074 34.1973 64.5815 37.3168 63.1672C40.4362 61.753 43.1603 59.5937 45.2493 56.8795C47.3383 54.1652 48.7283 50.9792 49.2968 47.6017C49.8654 44.2241 49.5952 40.7586 48.51 37.51C47.1941 33.5933 44.7447 30.1557 41.4725 27.633C38.2002 25.1102 34.2525 23.6161 30.13 23.34V23.31ZM17.75 31.62C19.3982 30.1783 21.3147 29.0759 23.3896 28.3759C25.4645 27.6759 27.6571 27.3921 29.8419 27.5407C32.0266 27.6894 34.1606 28.2675 36.1216 29.242C38.0826 30.2166 39.8321 31.5684 41.27 33.22V33.27C42.6857 34.9089 43.7691 36.8075 44.46 38.86C45.8674 43.0507 45.5568 47.6283 43.5964 51.5905C41.6359 55.5527 38.1852 58.5766 34 60C31.927 60.6894 29.7395 60.968 27.56 60.82C25.375 60.6805 23.2399 60.1059 21.28 59.13C19.335 58.1425 17.6024 56.7836 16.18 55.13L16.13 55.07C14.7092 53.433 13.6221 51.5341 12.93 49.48V49.43C12.2515 47.372 11.9798 45.2017 12.13 43.04C12.2743 40.856 12.8486 38.7219 13.8199 36.7604C14.7912 34.7989 16.1404 33.0486 17.79 31.61L17.75 31.62ZM46.34 23.54L57.34 13.94C64.6 21.06 71.64 29.66 78.83 36.76L105 10.43L96.55 2L122.88 0L121.4 26.83L113.3 18.73C107.49 24.62 93.75 37.59 87.93 43.41C80.58 50.76 77.07 50.9 69.72 43.54L57.3 29.73L53.44 33.15C53.0314 32.2264 52.5741 31.3251 52.07 30.45C51.209 28.962 50.2042 27.5619 49.07 26.27C48.2146 25.2967 47.2887 24.3875 46.3 23.55L46.34 23.54ZM64.76 54.88V84.31C64.7573 84.6911 64.6048 85.0559 64.3353 85.3253C64.0658 85.5948 63.7011 85.7474 63.32 85.75H50.91C50.5289 85.7474 50.1641 85.5948 49.8946 85.3253C49.6251 85.0559 49.4726 84.6911 49.47 84.31V62.92C50.2214 62.1467 50.9292 61.3321 51.59 60.48C52.714 59.0283 53.6889 57.4671 54.5 55.82C55.8524 53.1195 56.7479 50.2134 57.15 47.22L60.46 50.9L60.89 51.35C62.1182 52.5927 63.4099 53.7709 64.76 54.88ZM39.76 69.38V84.31C39.7573 84.6911 39.6048 85.0559 39.3353 85.3253C39.0658 85.5948 38.7011 85.7474 38.32 85.75H25.94C25.5589 85.7474 25.1941 85.5948 24.9246 85.3253C24.6551 85.0559 24.5026 84.6911 24.5 84.31V70.93C25.5193 71.1101 26.5474 71.2369 27.58 71.31C31.2298 71.5398 34.8898 71.0645 38.36 69.91C38.84 69.74 39.36 69.57 39.79 69.38H39.76ZM89.72 57.07V84.31C89.7173 84.6911 89.5648 85.0559 89.2953 85.3253C89.0258 85.5948 88.6611 85.7474 88.28 85.75H75.87C75.4889 85.7474 75.1241 85.5948 74.8546 85.3253C74.5851 85.0559 74.4326 84.6911 74.43 84.31V59.91C75.9197 60.2431 77.4437 60.3975 78.97 60.37C82.797 60.3326 86.5311 59.1863 89.72 57.07Z" fill="#7FFF00"/>
</g>
<defs>
<clipPath id="clip0_38_4">
<rect width="122.88" height="85.75" fill="white"/>
</clipPath>
</defs>
</svg>
