<svg width="65" height="36" viewBox="0 0 65 36" fill="none" xmlns="http://www.w3.org/2000/svg">
<g clip-path="url(#clip0_5_62)">
<path d="M0 32.4999C0 23.5258 3.63784 15.4007 9.5192 9.5192C15.4008 3.63784 23.5258 0 32.5001 0C39.5403 0 46.058 2.2392 51.3798 6.04386L47.9925 8.83898C44.2147 6.36073 39.8078 4.76264 35.0629 4.33621V8.02635H29.9369V4.33621C24.1955 4.85202 18.9486 7.08385 14.7132 10.5144L17.8608 13.6621L14.2364 17.2864L11.0369 14.087C6.78882 19.0342 4.22145 25.4672 4.22145 32.4999H0ZM57.192 11.3683C62.0594 17.0503 65 24.4319 65 32.4999H60.7786C60.7786 25.7677 58.426 19.5849 54.4986 14.7291L57.192 11.3683Z" fill="#ED1B24"/>
<path fill-rule="evenodd" clip-rule="evenodd" d="M29.6211 28.0389C24.6821 32.1195 31.2881 38.988 35.7451 33.1409L55.8821 8.01368L54.9392 7.14709L29.6211 28.0389Z" fill="#EF1C25"/>
</g>
<defs>
<clipPath id="clip0_5_62">
<rect width="65" height="35.4024" fill="white"/>
</clipPath>
</defs>
</svg>
