<svg width="120" height="130" viewBox="0 0 120 130" fill="none" xmlns="http://www.w3.org/2000/svg">
<g clip-path="url(#clip0_5_149)">
<path d="M3.39437 19.8167H21.001C20.9904 17.025 21.0221 14.1276 21.0644 11.0821V0H98.3961V11.0927C98.4173 14.1805 98.4173 17.0779 98.3856 19.8273H116.616V19.8379C118.34 19.8379 119.778 21.1914 119.862 22.9362C120.106 28.012 120.063 32.9926 119.439 37.6454C118.794 42.4674 117.547 46.9193 115.379 50.7367C113.243 54.4801 110.24 57.5996 106.073 59.8308C102.214 61.8928 97.3916 63.1618 91.3852 63.405C87.9168 69.1999 83.3168 71.9387 77.9132 76.8664C71.3993 81.847 66.4927 85.5904 70.2996 97.0955H75.9992C78.2728 97.0955 80.3348 98.0261 81.847 99.5277C83.3486 101.029 84.2791 103.102 84.2791 105.375V108.706H85.0934C87.3352 108.706 89.376 109.616 90.8565 111.096C92.3369 112.577 93.2463 114.607 93.2463 116.859V122.39C93.2463 123.426 92.4004 124.262 91.3746 124.262H28.1071C27.0708 124.262 26.2354 123.416 26.2354 122.39V116.859C26.2354 114.628 27.1448 112.587 28.6253 111.117L28.6358 111.107C30.1163 109.626 32.1466 108.717 34.3778 108.717H35.192V105.386C35.192 103.112 36.1226 101.05 37.6242 99.5594L37.6348 99.5488C39.1364 98.0578 41.209 97.1167 43.4613 97.1167H49.8695C53.2745 86.2672 48.8121 82.7564 42.6471 77.9027C36.5562 73.5671 32.1149 68.8826 28.9002 63.4367C22.6718 63.2358 17.7017 61.9563 13.7574 59.8308C9.61221 57.5996 6.63019 54.4801 4.52585 50.7261C2.38979 46.9299 1.15257 42.478 0.528671 37.656C-0.0635038 33.0878 -0.116376 28.1812 0.116264 23.2006V23.116C0.126838 21.276 1.58613 19.8167 3.39437 19.8167ZM98.0366 31.7236C97.6348 39.7074 96.9051 45.8935 95.9005 50.8001C98.026 50.356 99.7708 49.6792 101.188 48.791C102.89 47.7335 104.149 46.3483 105.09 44.6775C106.105 42.8798 106.739 40.7437 107.131 38.3433C107.459 36.3447 107.607 34.1346 107.659 31.7342H98.1952L98.0366 31.7236ZM21.2759 31.7236H21.2336H12.7211C12.7634 34.1135 12.9009 36.3342 13.197 38.3539C13.5565 40.7755 14.1487 42.9115 15.1004 44.688C15.9887 46.3482 17.2047 47.7335 18.8755 48.791C20.2079 49.6369 21.8364 50.2926 23.8244 50.7367C22.418 45.1956 21.646 38.9355 21.2759 31.7236Z" fill="#F39D00"/>
<path d="M21.2337 23.0737H3.39441C2.90798 32.8869 3.53188 42.256 7.38102 49.0977C11.0081 55.5587 17.6489 59.8309 29.1857 60.1481C27.8745 58.5302 26.6161 56.6268 25.5058 54.3321C18.5689 53.4015 14.5506 50.5253 12.2453 46.2214C9.94006 41.9176 9.45363 36.2919 9.45363 29.7568C9.45363 29.0378 10.0352 28.4562 10.7543 28.4562H21.2443V23.0737H21.2337ZM98.1847 28.4668H109.626C110.345 28.4668 110.927 29.0484 110.927 29.7674C110.927 36.3236 110.335 41.9599 107.924 46.2637C105.513 50.5464 101.41 53.4015 94.4942 54.3427C93.3415 56.6691 92.0091 58.5619 90.6027 60.1798C102.192 59.8732 108.886 55.601 112.556 49.1294C116.447 42.2877 117.092 32.9081 116.616 23.0949H98.1847V28.4668Z" fill="#F9C809"/>
<path d="M84.2685 108.664L85.0827 108.675C87.3245 108.675 89.3654 109.584 90.8459 111.064C92.3263 112.545 93.2357 114.575 93.2357 116.828V128.068C93.2357 129.105 92.3897 129.94 91.364 129.94H28.107C27.0707 129.94 26.2354 129.094 26.2354 128.068V116.828C26.2354 114.596 27.1448 112.555 28.6252 111.086L28.6358 111.075C30.1162 109.595 32.1465 108.685 34.3778 108.685H35.192V108.675H84.2685V108.664Z" fill="#222222"/>
<path d="M74.6986 114.248H37.7722C36.5244 114.248 35.393 114.755 34.5787 115.569L34.5682 115.58C33.7539 116.394 33.2463 117.526 33.2463 118.773V124.357H86.2354V118.773C86.2354 117.536 85.7278 116.405 84.903 115.58C84.0888 114.766 82.9573 114.248 81.7095 114.248H74.6986Z" fill="#EAD79E"/>
<path d="M53.6235 98.3751H66.5667C66.1755 97.1167 65.8794 95.9324 65.6679 94.8115H61.1948C64.8748 82.0797 59.5029 77.8393 52.1219 72.0339C49.8589 70.2574 47.3845 68.3117 45.0264 65.9112C41.7905 62.6331 38.6182 58.4139 36.1649 52.3864C33.6799 46.2743 31.8716 38.3011 31.4063 27.5362V2.79175H23.835V31.0998C24.3002 41.8647 26.1085 49.8485 28.5935 55.95C31.0574 61.9881 34.2192 66.1967 37.455 69.4749C39.8131 71.8753 42.2876 73.8104 44.5505 75.5975C51.9315 81.4029 57.3034 85.6433 53.6235 98.3751Z" fill="#F8B705"/>
<path d="M59.8942 98.3751H66.5667C62.4638 84.9348 68.3432 80.4512 76.0944 74.5295C84.5963 68.0367 95.6573 59.6088 95.6573 31.8612V2.79175H59.8942V98.3751Z" fill="#FAC809"/>
<path d="M61.5966 21.2866L64.5681 28.5196L72.3827 29.1118C73.493 29.1964 74.3284 30.1587 74.2438 31.269C74.2015 31.8612 73.9054 32.3793 73.4613 32.7177L67.5501 37.7301L69.4007 45.3226C69.665 46.4012 68.9988 47.4904 67.9202 47.7547C67.3598 47.8922 66.7887 47.7759 66.3446 47.4798L59.7461 43.3874L53.0947 47.5009C52.1536 48.0825 50.9163 47.7865 50.3242 46.8453C50.0281 46.3695 49.9541 45.8196 50.081 45.312L51.9315 37.7195L45.9569 32.6543C45.1109 31.9352 45.0052 30.6663 45.7242 29.8203C46.0838 29.3867 46.5914 29.1541 47.1095 29.1118L54.9241 28.5196L57.8955 21.2866C58.3185 20.2609 59.4923 19.7639 60.518 20.1869C61.0256 20.409 61.4063 20.8108 61.5966 21.2866Z" fill="#F39D00"/>
<path d="M59.7462 22.0586L63.1829 30.4336L72.2347 31.121L65.3084 36.9899L67.455 45.7879L59.7462 41.0188L52.0373 45.7879L54.184 36.9899L47.2471 31.121L56.2989 30.4336L59.7462 22.0586Z" fill="white"/>
<path fill-rule="evenodd" clip-rule="evenodd" d="M81.0222 50.3561L80.9482 50.4618C80.1022 49.8485 79.1293 49.6264 78.0402 49.8062C76.951 49.9754 76.0944 50.4935 75.4811 51.3395L75.3754 51.2655C75.9887 50.4195 76.2108 49.4467 76.031 48.3575C75.8512 47.2683 75.3436 46.4118 74.4977 45.7984C74.5188 45.7667 77.0461 46.4223 77.4797 46.3483C78.5689 46.1791 79.4254 45.661 80.0388 44.815L80.1445 44.889C79.5312 45.735 79.3091 46.7078 79.4889 47.797C79.6686 48.8862 80.1762 49.7427 81.0222 50.3561ZM89.1117 36.7995L89.0377 36.9052C88.1917 36.2919 87.2189 36.0698 86.1297 36.2496C85.0405 36.4188 84.184 36.937 83.5706 37.7829L83.4649 37.7089C84.0782 36.8629 84.3003 35.8901 84.1205 34.8009C83.9408 33.7117 83.4332 32.8552 82.5872 32.2419L82.6612 32.1361C83.5072 32.7494 84.4801 32.9715 85.5692 32.7917C86.6584 32.6225 87.515 32.1044 88.1283 31.2584L88.234 31.3325C87.6207 32.1784 87.3986 33.1513 87.5784 34.2405C87.7476 35.3296 88.2657 36.1756 89.1117 36.7995ZM89.1752 22.4604L89.0377 22.6507C87.4938 21.5298 85.7173 21.128 83.7187 21.4452C81.7201 21.7625 80.1551 22.693 79.0342 24.2475L78.8438 24.11C79.9647 22.5661 80.3666 20.7896 80.0493 18.7805C79.7321 16.7819 78.791 15.2168 77.2471 14.0959L77.3845 13.9056C78.939 15.0265 80.7049 15.4283 82.7035 15.1111C84.7021 14.7939 86.2672 13.8633 87.3881 12.3088L87.5784 12.4463C86.4575 14.0008 86.0557 15.7667 86.3729 17.7653C86.6901 19.7639 87.6313 21.3395 89.1752 22.4604Z" fill="white"/>
</g>
<defs>
<clipPath id="clip0_5_149">
<rect width="120" height="129.94" fill="white"/>
</clipPath>
</defs>
</svg>
